{"asset":{"version":"2.0","generator":"Unity 6000.2.10f1 glTFast 6.15.1"},"nodes":[{"name":"Tree01_BG","mesh":0,"translation":[-9.795578,-0.9788,-2.0613575],"rotation":[1.7754429E-08,-0.583173156,-1.27456534E-08,0.812347949],"scale":[0.79044,1.29858255,1]},{"name":"Tree02_BG","mesh":1,"translation":[-7.88053131,0.07001,9.049837],"rotation":[1.97026413E-08,-0.4328045,-9.459243E-09,0.9014878],"scale":[0.806510031,1,1]},{"name":"Tree03_BG","mesh":2,"translation":[7.99125147,0.0199301112,-1.40835],"rotation":[1.826279E-08,0.54932636,1.20059074E-08,0.8356079],"scale":[1,1.0503,1]},{"name":"Tree04_BG","mesh":3,"translation":[7.70516729,-0.09999,9.968496],"rotation":[1.935645E-08,0.464357555,1.01488578E-08,0.885647833],"scale":[0.8258701,1,1]},{"name":"Tree01_BG (1)","mesh":0,"translation":[3.97044086,-0.0899900049,-6.36081839],"rotation":[2.01640855E-08,0.3857556,8.430957E-09,0.922601],"scale":[0.6400684,0.85319,1]},{"name":"Tree02_BG (1)","mesh":1,"translation":[-7.605472,-0.12999,-6.972283],"rotation":[1.96303027E-08,-0.439632237,-9.608469E-09,0.8981779]},{"name":"Tree02_BG (2)","mesh":1,"translation":[-13.182909,-0.18199,4.23741],"rotation":[1.774398E-08,-0.5838384,-1.27601929E-08,0.8118699]},{"name":"Tree04_BG (1)","mesh":3,"translation":[0.7103901,-0.179990008,17.511097],"rotation":[2.18556941E-08,0,0,1],"scale":[0.7657359,0.78218,1]},{"name":"bush_01 (3)","mesh":4,"translation":[-1.20251727,0.01632114,3.63017654],"rotation":[2.09426645E-08,-0.286016941,-6.25109831E-09,0.9582246]},{"name":"bush_01","mesh":4,"translation":[-5.017,-0.096,1.46],"rotation":[1.84562268E-08,-0.535621166,-1.17063719E-08,0.844458461]},{"name":"bush_02","mesh":5,"translation":[2.21709013,0.02001,1.87740993],"rotation":[2.18556941E-08,0,0,1]},{"name":"bush_03","mesh":6,"translation":[-5.17290974,0.0200099815,8.307409],"rotation":[2.14292832E-08,0.196570382,4.29618252E-09,0.9804898]},{"name":"bush_03 (1)","mesh":6,"translation":[2.774735,0.0163143147,7.035102],"rotation":[2.09199946E-08,0.2894692,6.32655039E-09,0.957187355]},{"name":"bush_03 (3)","mesh":6,"translation":[0.76,0.0200000275,5.99],"rotation":[2.183664E-08,-0.0417495444,-9.124663E-10,0.9991281]},{"name":"bush_03 (2)","mesh":6,"translation":[-8.800786,0.100468263,2.45104551],"rotation":[2.18556941E-08,0,0,1]},{"name":"bush_02 (1)","mesh":5,"translation":[-6.92334938,0.113144428,12.7535686],"rotation":[2.18556941E-08,0,0,1]},{"name":"bush_01 (1)","mesh":4,"translation":[9.535849,0.0163158942,7.550569],"rotation":[2.10918021E-08,-0.262071878,-5.727763E-09,0.9650484]},{"name":"bush_01 (2)","mesh":4,"translation":[3.34133482,0.1956547,-2.08582449],"rotation":[2.18556941E-08,0,0,1]},{"name":"dead_tree_01","mesh":7,"rotation":[2.18556941E-08,0,0,1]},{"name":"dead_tree_01_leaf","mesh":8,"rotation":[2.18556941E-08,0,0,1]},{"name":"dead_tree_01","children":[18,19],"translation":[-6.62491,0.0100099994,4.47741]},{"name":"Foliage","children":[0,1,2,3,4,5,6,7,8,9,10,11,12,13,14,15,16,17,20],"translation":[1.20291,-1E-05,-4.22741]}],"buffers":[{"uri":"scene.bin","byteLength":83152}],"bufferViews":[{"buffer":0,"byteLength":24,"target":34963},{"buffer":0,"byteLength":24,"byteOffset":24,"target":34963},{"buffer":0,"byteLength":24,"byteOffset":48,"target":34963},{"buffer":0,"byteLength":24,"byteOffset":72,"target":34963},{"buffer":0,"byteLength":288,"byteOffset":96,"target":34963},{"buffer":0,"byteLength":288,"byteOffset":384,"target":34963},{"buffer":0,"byteLength":240,"byteOffset":672,"target":34963},{"buffer":0,"byteLength":6840,"byteOffset":912,"target":34963},{"buffer":0,"byteLength":336,"byteOffset":7752,"target":34963},{"buffer":0,"byteLength":384,"byteOffset":8088,"byteStride":48,"target":34962},{"buffer":0,"byteLength":384,"byteOffset":8472,"byteStride":48,"target":34962},{"buffer":0,"byteLength":384,"byteOffset":8856,"byteStride":48,"target":34962},{"buffer":0,"byteLength":384,"byteOffset":9240,"byteStride":48,"target":34962},{"buffer":0,"byteLength":3360,"byteOffset":9624,"byteStride":56,"target":34962},{"buffer":0,"byteLength":3360,"byteOffset":12984,"byteStride":56,"target":34962},{"buffer":0,"byteLength":2800,"byteOffset":16344,"byteStride":56,"target":34962},{"buffer":0,"byteLength":60088,"byteOffset":19144,"byteStride":56,"target":34962},{"buffer":0,"byteLength":3920,"byteOffset":79232,"byteStride":56,"target":34962}],"accessors":[{"bufferView":10,"componentType":5126,"count":8,"type":"VEC3","max":[4.09360075,6.854367,0.0331674],"min":[-4.09360266,-0.0387606621,-4.06056643E-07]},{"bufferView":10,"componentType":5126,"count":8,"type":"VEC3","byteOffset":12},{"bufferView":10,"componentType":5126,"count":8,"type":"VEC4","byteOffset":24},{"bufferView":10,"componentType":5126,"count":8,"type":"VEC2","byteOffset":40},{"bufferView":0,"componentType":5123,"count":12,"type":"SCALAR"},{"bufferView":9,"componentType":5126,"count":8,"type":"VEC3","max":[3.85758877,6.854367,0.0331674],"min":[-3.85758686,-0.0387606621,-4.06056643E-07]},{"bufferView":9,"componentType":5126,"count":8,"type":"VEC3","byteOffset":12},{"bufferView":9,"componentType":5126,"count":8,"type":"VEC4","byteOffset":24},{"bufferView":9,"componentType":5126,"count":8,"type":"VEC2","byteOffset":40},{"bufferView":1,"componentType":5123,"count":12,"type":"SCALAR"},{"bufferView":11,"componentType":5126,"count":8,"type":"VEC3","max":[3.82770777,7.184278,0.03316742],"min":[-3.827711,-0.0549697876,-4.39584255E-07]},{"bufferView":11,"componentType":5126,"count":8,"type":"VEC3","byteOffset":12},{"bufferView":11,"componentType":5126,"count":8,"type":"VEC4","byteOffset":24},{"bufferView":11,"componentType":5126,"count":8,"type":"VEC2","byteOffset":40},{"bufferView":2,"componentType":5123,"count":12,"type":"SCALAR"},{"bufferView":12,"componentType":5126,"count":8,"type":"VEC3","max":[3.827711,7.184278,0.03316742],"min":[-3.82770777,-0.0549697876,-4.39584255E-07]},{"bufferView":12,"componentType":5126,"count":8,"type":"VEC3","byteOffset":12},{"bufferView":12,"componentType":5126,"count":8,"type":"VEC4","byteOffset":24},{"bufferView":12,"componentType":5126,"count":8,"type":"VEC2","byteOffset":40},{"bufferView":3,"componentType":5123,"count":12,"type":"SCALAR"},{"bufferView":13,"componentType":5126,"count":60,"type":"VEC3","max":[0.94047904,0.9326939,0.868389547],"min":[-0.940477848,-0.0163163543,-0.8683906]},{"bufferView":13,"componentType":5126,"count":60,"type":"VEC3","byteOffset":12},{"bufferView":13,"componentType":5126,"count":60,"type":"VEC4","byteOffset":24},{"bufferView":13,"componentType":5126,"count":60,"type":"VEC2","byteOffset":40},{"bufferView":13,"componentType":5126,"count":60,"type":"VEC2","byteOffset":48},{"bufferView":4,"componentType":5123,"count":144,"type":"SCALAR"},{"bufferView":14,"componentType":5126,"count":60,"type":"VEC3","max":[0.9764716,0.9686885,0.901628554],"min":[-0.9764703,-0.0163162351,-0.9016282]},{"bufferView":14,"componentType":5126,"count":60,"type":"VEC3","byteOffset":12},{"bufferView":14,"componentType":5126,"count":60,"type":"VEC4","byteOffset":24},{"bufferView":14,"componentType":5126,"count":60,"type":"VEC2","byteOffset":40},{"bufferView":14,"componentType":5126,"count":60,"type":"VEC2","byteOffset":48},{"bufferView":5,"componentType":5123,"count":144,"type":"SCALAR"},{"bufferView":15,"componentType":5126,"count":50,"type":"VEC3","max":[1.02429366,1.01651371,0.945791245],"min":[-1.024293,-0.0163162947,-0.945791]},{"bufferView":15,"componentType":5126,"count":50,"type":"VEC3","byteOffset":12},{"bufferView":15,"componentType":5126,"count":50,"type":"VEC4","byteOffset":24},{"bufferView":15,"componentType":5126,"count":50,"type":"VEC2","byteOffset":40},{"bufferView":15,"componentType":5126,"count":50,"type":"VEC2","byteOffset":48},{"bufferView":6,"componentType":5123,"count":120,"type":"SCALAR"},{"bufferView":16,"componentType":5126,"count":1073,"type":"VEC3","max":[5.293185,6.875297,3.26693583],"min":[-2.7694416,-0.09865904,-3.96768522]},{"bufferView":16,"componentType":5126,"count":1073,"type":"VEC3","byteOffset":12},{"bufferView":16,"componentType":5126,"count":1073,"type":"VEC4","byteOffset":24},{"bufferView":16,"componentType":5126,"count":1073,"type":"VEC2","byteOffset":40},{"bufferView":16,"componentType":5126,"count":1073,"type":"VEC2","byteOffset":48},{"bufferView":7,"componentType":5123,"count":3420,"type":"SCALAR"},{"bufferView":17,"componentType":5126,"count":70,"type":"VEC3","max":[6.95127773,6.67786741,2.72888517],"min":[-1.12674141,1.2737236,-3.56420612]},{"bufferView":17,"componentType":5126,"count":70,"type":"VEC3","byteOffset":12},{"bufferView":17,"componentType":5126,"count":70,"type":"VEC4","byteOffset":24},{"bufferView":17,"componentType":5126,"count":70,"type":"VEC2","byteOffset":40},{"bufferView":17,"componentType":5126,"count":70,"type":"VEC2","byteOffset":48},{"bufferView":8,"componentType":5123,"count":168,"type":"SCALAR"}],"images":[{"name":"Tree_BG.webp","uri":"Tree_BG.webp","mimeType":"image/webp"},{"name":"cemetery_halloween_atlas.webp","uri":"cemetery_halloween_atlas.webp","mimeType":"image/webp"}],"materials":[{"name":"Tree_BG","pbrMetallicRoughness":{"baseColorFactor":[0.304987371,0.304987371,0.304987371,1],"metallicFactor":0,"baseColorTexture":{"index":0}},"alphaMode":"MASK"},{"name":"cemetery_halloween_atlas_alpha","pbrMetallicRoughness":{"baseColorFactor":[0.304987371,0.304987371,0.304987371,1],"metallicFactor":0,"baseColorTexture":{"index":1}},"alphaMode":"MASK"},{"name":"cemetery_halloween_atlas","pbrMetallicRoughness":{"baseColorFactor":[0.304987371,0.304987371,0.304987371,1],"metallicFactor":0,"baseColorTexture":{"index":1}}}],"meshes":[{"name":"Tree01_BG","primitives":[{"attributes":{"POSITION":0,"NORMAL":1,"TANGENT":2,"TEXCOORD_0":3},"indices":4,"material":0}]},{"name":"Tree02_BG","primitives":[{"attributes":{"POSITION":5,"NORMAL":6,"TANGENT":7,"TEXCOORD_0":8},"indices":9,"material":0}]},{"name":"Tree03_BG","primitives":[{"attributes":{"POSITION":10,"NORMAL":11,"TANGENT":12,"TEXCOORD_0":13},"indices":14,"material":0}]},{"name":"Tree04_BG","primitives":[{"attributes":{"POSITION":15,"NORMAL":16,"TANGENT":17,"TEXCOORD_0":18},"indices":19,"material":0}]},{"name":"bush_01","primitives":[{"attributes":{"POSITION":20,"NORMAL":21,"TANGENT":22,"TEXCOORD_0":23,"TEXCOORD_1":24},"indices":25,"material":1}]},{"name":"bush_02","primitives":[{"attributes":{"POSITION":26,"NORMAL":27,"TANGENT":28,"TEXCOORD_0":29,"TEXCOORD_1":30},"indices":31,"material":1}]},{"name":"bush_03","primitives":[{"attributes":{"POSITION":32,"NORMAL":33,"TANGENT":34,"TEXCOORD_0":35,"TEXCOORD_1":36},"indices":37,"material":1}]},{"name":"dead_tree_01","primitives":[{"attributes":{"POSITION":38,"NORMAL":39,"TANGENT":40,"TEXCOORD_0":41,"TEXCOORD_1":42},"indices":43,"material":2}]},{"name":"dead_tree_01_leaf","primitives":[{"attributes":{"POSITION":44,"NORMAL":45,"TANGENT":46,"TEXCOORD_0":47,"TEXCOORD_1":48},"indices":49,"material":1}]}],"scene":0,"scenes":[{"name":"Foliage","nodes":[21]}],"textures":[{"source":0},{"source":1}]}
